<svg width="42" height="42" viewBox="0 0 42 42" fill="none" xmlns="http://www.w3.org/2000/svg">
<path d="M21.0094 41.9441C32.5919 41.9441 41.9814 32.5546 41.9814 20.972C41.9814 9.38949 32.5919 0 21.0094 0C9.42686 0 0.0373535 9.38949 0.0373535 20.972C0.0373535 32.5546 9.42686 41.9441 21.0094 41.9441Z" fill="#373C59"/>
<path d="M32.592 13.7755C31.8348 14.1018 31.0374 14.3251 30.2209 14.4394C30.6003 14.4394 31.1456 13.7044 31.4064 13.4317C31.7493 13.0182 32.0108 12.5436 32.1771 12.0328C32.1771 12.0328 32.1771 11.938 32.1771 11.9142C32.1572 11.9028 32.1347 11.8968 32.1118 11.8968C32.0889 11.8968 32.0664 11.9028 32.0466 11.9142C31.1799 12.3728 30.2602 12.7232 29.308 12.9575C29.2796 12.9754 29.2468 12.9849 29.2132 12.9849C29.1797 12.9849 29.1468 12.9754 29.1184 12.9575C29.0455 12.8689 28.9662 12.7857 28.8813 12.7086C28.4872 12.3671 28.0383 12.0945 27.5535 11.9024C26.9089 11.6344 26.2107 11.5208 25.5144 11.5704C24.8389 11.6197 24.1804 11.8059 23.5792 12.1177C22.9779 12.4295 22.4464 12.8605 22.0171 13.3843C21.5734 13.9322 21.2575 14.5721 21.0923 15.2574C20.962 15.907 20.962 16.5759 21.0923 17.2254C21.0923 17.3321 21.0923 17.344 20.9975 17.3321C17.3769 16.9732 14.0185 15.2834 11.5725 12.59C11.4659 12.4596 11.4065 12.4596 11.3236 12.59C10.8251 13.4922 10.6342 14.5321 10.7796 15.5525C10.9251 16.5729 11.3991 17.5181 12.1297 18.245L12.7106 18.7548C12.0795 18.6993 11.4644 18.5264 10.8968 18.245C10.7782 18.1739 10.7308 18.245 10.7189 18.3398C10.7015 18.5172 10.7015 18.6959 10.7189 18.8733C10.8311 19.7226 11.1668 20.5268 11.6917 21.2037C12.2166 21.8807 12.9119 22.4061 13.7065 22.7263C13.8994 22.8143 14.1025 22.878 14.3111 22.916C13.718 23.0092 13.114 23.0092 12.521 22.916C12.3905 22.916 12.3431 22.916 12.3906 23.0819C12.695 23.8818 13.1991 24.5903 13.8549 25.1403C14.5106 25.6902 15.2962 26.0631 16.1368 26.2236C16.3082 26.235 16.4786 26.2587 16.6466 26.2947C15.9191 26.9543 15.0392 27.4228 14.0859 27.6581C12.8403 28.1008 11.5142 28.2706 10.1973 28.156C9.9839 28.156 9.94832 28.156 9.88904 28.156C9.82977 28.156 9.8891 28.239 9.94838 28.2983C10.2092 28.4643 10.4819 28.6184 10.7545 28.7725C11.5797 29.2132 12.4502 29.563 13.3508 29.8158C15.6622 30.5057 18.1135 30.581 20.4628 30.0343C22.8121 29.4875 24.9782 28.3375 26.7473 26.6978C28.0198 25.316 29.0035 23.694 29.6407 21.9269C30.2779 20.1598 30.5557 18.2833 30.458 16.4074C30.458 16.2651 30.6359 16.1822 30.7426 16.0992C31.4386 15.5573 32.0534 14.9186 32.5682 14.2023C32.6477 14.0965 32.6895 13.9671 32.6868 13.8348C32.6868 13.8348 32.6868 13.74 32.592 13.7755Z" fill="white"/>
</svg>
