<svg width="42" height="42" viewBox="0 0 42 42" fill="none" xmlns="http://www.w3.org/2000/svg">
<path d="M21.0279 41.9441C32.6105 41.9441 42 32.5546 42 20.972C42 9.3895 32.6105 0 21.0279 0C9.44541 0 0.0559082 9.3895 0.0559082 20.972C0.0559082 32.5546 9.44541 41.9441 21.0279 41.9441Z" fill="#373C59"/>
<path d="M32.2551 18.0195C32.2551 16.6832 31.7242 15.4016 30.7793 14.4567C29.8344 13.5118 28.5529 12.981 27.2166 12.981H14.3417C13.0054 12.981 11.7238 13.5118 10.7789 14.4567C9.83401 15.4016 9.30322 16.6832 9.30322 18.0195V23.9471C9.30322 25.2834 9.83401 26.565 10.7789 27.5099C11.7238 28.4548 13.0054 28.9856 14.3417 28.9856H27.2166C28.5529 28.9856 29.8344 28.4548 30.7793 27.5099C31.7242 26.565 32.2551 25.2834 32.2551 23.9471V18.0195ZM24.6795 21.4575L18.906 24.3146C18.6807 24.445 17.9101 24.3146 17.9101 24.0182V18.1499C17.9101 17.889 18.6926 17.7231 18.9179 17.8535L24.4424 20.8647C24.6795 20.9596 24.9166 21.2915 24.6795 21.4219V21.4575Z" fill="white"/>
</svg>
