<svg width="46" height="46" viewBox="0 0 46 46" fill="none" xmlns="http://www.w3.org/2000/svg">
<path d="M4.30492 33.0047C4.58765 33.005 4.86766 32.9495 5.12887 32.8413C5.39008 32.7332 5.62733 32.5744 5.82701 32.3743L17.9374 20.2638L22.8728 25.1993C23.0727 25.3992 23.31 25.5577 23.5712 25.6659C23.8323 25.7741 24.1122 25.8298 24.3949 25.8298C24.6776 25.8298 24.9575 25.7741 25.2187 25.6659C25.4798 25.5577 25.7171 25.3992 25.917 25.1993L39.4616 11.6547L39.4608 16.5022C39.4608 17.0731 39.6876 17.6206 40.0912 18.0242C40.4949 18.4279 41.0424 18.6547 41.6133 18.6547C42.1842 18.6547 42.7317 18.4279 43.1353 18.0242C43.539 17.6206 43.7658 17.0731 43.7658 16.5022L43.7674 6.45719C43.7674 5.88631 43.5406 5.33881 43.1369 4.93514C42.7333 4.53147 42.1858 4.30469 41.6149 4.30469H31.5699C30.999 4.30469 30.4515 4.53147 30.0479 4.93514C29.6442 5.33881 29.4174 5.88631 29.4174 6.45719C29.4174 7.02806 29.6442 7.57556 30.0479 7.97923C30.4515 8.3829 30.999 8.60968 31.5699 8.60968H36.4183L24.3949 20.6331L19.4595 15.6976C19.2596 15.4977 19.0223 15.3391 18.7612 15.231C18.5 15.1228 18.2201 15.0671 17.9374 15.0671C17.6547 15.0671 17.3748 15.1228 17.1137 15.231C16.8525 15.3391 16.6152 15.4977 16.4153 15.6976L2.78284 29.3301C2.48179 29.6311 2.27677 30.0147 2.19371 30.4322C2.11065 30.8498 2.15327 31.2826 2.3162 31.6759C2.47912 32.0692 2.75503 32.4054 3.10902 32.6419C3.46301 32.8785 3.87919 33.0047 4.30492 33.0047Z" fill="white"/>
<path d="M41.6148 37.3096H4.30484C3.73396 37.3096 3.18647 37.5364 2.7828 37.94C2.37912 38.3437 2.15234 38.8912 2.15234 39.4621C2.15234 40.0329 2.37912 40.5804 2.7828 40.9841C3.18647 41.3878 3.73396 41.6146 4.30484 41.6146H41.6148C42.1857 41.6146 42.7332 41.3878 43.1369 40.9841C43.5405 40.5804 43.7673 40.0329 43.7673 39.4621C43.7673 38.8912 43.5405 38.3437 43.1369 37.94C42.7332 37.5364 42.1857 37.3096 41.6148 37.3096Z" fill="white"/>
</svg>
