<svg width="50" height="50" viewBox="0 0 50 50" fill="none" xmlns="http://www.w3.org/2000/svg">
<g clip-path="url(#clip0_839_2186)">
<path d="M24.6 7.08685C23.7513 7.08685 23.0625 6.39805 23.0625 5.54935V1.5375C23.0625 0.6888 23.7513 0 24.6 0C25.4487 0 26.1375 0.6888 26.1375 1.5375V5.54935C26.1375 6.39805 25.4487 7.08685 24.6 7.08685Z" fill="white"/>
<path d="M38.0704 12.6667C37.6768 12.6667 37.2832 12.517 36.9839 12.2157C36.3833 11.615 36.3833 10.6413 36.9839 10.0406L39.8211 7.20342C40.4218 6.60277 41.3955 6.60277 41.9962 7.20342C42.5968 7.80407 42.5968 8.77781 41.9962 9.37846L39.159 12.2157C38.8576 12.515 38.464 12.6667 38.0704 12.6667Z" fill="white"/>
<path d="M47.6624 26.1375H43.6505C42.8018 26.1375 42.113 25.4487 42.113 24.6C42.113 23.7513 42.8018 23.0625 43.6505 23.0625H47.6624C48.5111 23.0625 49.1999 23.7513 49.1999 24.6C49.1999 25.4487 48.5111 26.1375 47.6624 26.1375Z" fill="white"/>
<path d="M40.9076 42.445C40.514 42.445 40.1204 42.2953 39.8211 41.994L36.9839 39.1568C36.3833 38.5561 36.3833 37.5824 36.9839 36.9817C37.5846 36.3811 38.5583 36.3811 39.159 36.9817L41.9962 39.8189C42.5968 40.4196 42.5968 41.3933 41.9962 41.994C41.6948 42.2953 41.3012 42.445 40.9076 42.445Z" fill="white"/>
<path d="M8.29236 42.445C7.89876 42.445 7.50516 42.2953 7.20586 41.994C6.60521 41.3933 6.60521 40.4196 7.20586 39.8189L10.0431 36.9817C10.6437 36.3811 11.6175 36.3811 12.2181 36.9817C12.8187 37.5824 12.8187 38.5561 12.2181 39.1568L9.3809 41.994C9.07956 42.2953 8.68596 42.445 8.29236 42.445Z" fill="white"/>
<path d="M5.54935 26.1375H1.5375C0.6888 26.1375 0 25.4487 0 24.6C0 23.7513 0.6888 23.0625 1.5375 23.0625H5.54935C6.39805 23.0625 7.08685 23.7513 7.08685 24.6C7.08685 25.4487 6.39805 26.1375 5.54935 26.1375Z" fill="white"/>
<path d="M11.1296 12.6667C10.736 12.6667 10.3424 12.517 10.0431 12.2157L7.20586 9.37846C6.60521 8.77781 6.60521 7.80407 7.20586 7.20342C7.80651 6.60277 8.78026 6.60277 9.3809 7.20342L12.2181 10.0406C12.8187 10.6413 12.8187 11.615 12.2181 12.2157C11.9147 12.515 11.5232 12.6667 11.1296 12.6667Z" fill="white"/>
<path d="M30.7499 43.0498V45.6123C30.7499 47.5803 29.1304 49.1998 27.1624 49.1998H22.0374C20.3155 49.1998 18.45 47.8878 18.45 45.0178V43.0498H30.7499Z" fill="white"/>
<path d="M33.6404 13.4481C30.2784 10.7216 25.8504 9.65562 21.5249 10.5781C16.0924 11.7056 11.6849 16.1336 10.5574 21.5661C9.40945 27.1421 11.5004 32.6771 15.9694 36.0596C17.1789 36.9616 18.0194 38.3556 18.3064 39.9751V39.9956C18.3474 39.9751 18.4089 39.9751 18.4499 39.9751H30.7499C30.7909 39.9751 30.8114 39.9751 30.8524 39.9956V39.9751C31.1394 38.4171 32.0619 36.9821 33.4764 35.8751C36.9409 33.1281 38.9499 29.0281 38.9499 24.6001C38.9499 20.2541 37.0229 16.1951 33.6404 13.4481ZM23.8312 24.0876H25.3687C27.7713 24.0876 29.7249 26.0413 29.7249 28.4439C29.7249 30.582 28.1731 32.3573 26.1374 32.7222V35.3626C26.1374 36.2113 25.4486 36.9001 24.5999 36.9001C23.7512 36.9001 23.0624 36.2113 23.0624 35.3626V32.8001H21.0124C20.1637 32.8001 19.4749 32.1113 19.4749 31.2626C19.4749 30.4139 20.1637 29.7251 21.0124 29.7251H25.3687C26.0759 29.7251 26.6499 29.1511 26.6499 28.4439C26.6499 27.7366 26.0759 27.1626 25.3687 27.1626H23.8312C21.4286 27.1626 19.4749 25.209 19.4749 22.8064C19.4749 20.6682 21.0268 18.8929 23.0624 18.528V15.8876C23.0624 15.0389 23.7512 14.3501 24.5999 14.3501C25.4486 14.3501 26.1374 15.0389 26.1374 15.8876V18.4501H28.1874C29.0361 18.4501 29.7249 19.1389 29.7249 19.9876C29.7249 20.8363 29.0361 21.5251 28.1874 21.5251H23.8312C23.1239 21.5251 22.5499 22.0991 22.5499 22.8064C22.5499 23.5136 23.1239 24.0876 23.8312 24.0876Z" fill="white"/>
<path d="M18.3064 39.9746H18.4507C18.4094 39.9746 18.3476 39.9746 18.3064 39.9952V39.9746Z" fill="white"/>
<path d="M30.854 39.9746V39.9954C30.8124 39.9746 30.7916 39.9746 30.75 39.9746H30.854Z" fill="white"/>
</g>
<defs>
<clipPath id="clip0_839_2186">
<rect width="49.2" height="49.2" fill="white"/>
</clipPath>
</defs>
</svg>
