<svg width="29" height="29" viewBox="0 0 29 29" fill="none" xmlns="http://www.w3.org/2000/svg">
<g clip-path="url(#clip0_839_2243)">
<path d="M19.2408 6.80653L3.81908 14.3322C3.16937 14.6492 2.76135 15.2953 2.75416 16.0182C2.74703 16.7411 3.1422 17.3951 3.78548 17.7249L8.86596 20.33L13.4386 15.153C13.649 14.9148 14.0127 14.8922 14.251 15.1026C14.4892 15.313 14.5118 15.6768 14.3013 15.915L9.72873 21.0921L12.9413 25.8118C13.3481 26.4095 14.0459 26.7209 14.7624 26.6244C15.4803 26.5278 16.07 26.0421 16.304 25.3594L21.8672 9.12625C22.1205 8.38717 21.9141 7.60676 21.3285 7.08954C20.7429 6.57233 19.943 6.46383 19.2408 6.80653Z" fill="white"/>
</g>
<defs>
<clipPath id="clip0_839_2243">
<rect width="19.6445" height="19.6445" fill="white" transform="translate(0.961914 15.3105) rotate(-48.5475)"/>
</clipPath>
</defs>
</svg>
